<svg xmlns="http://www.w3.org/2000/svg" xmlns:xlink="http://www.w3.org/1999/xlink" width="1920" zoomAndPan="magnify" viewBox="0 0 1440 809.999993" height="1080" preserveAspectRatio="xMidYMid meet" version="1.0"><defs><g/><clipPath id="46017f8d7b"><path d="M 661.359375 270 L 1350 270 L 1350 539.609375 L 661.359375 539.609375 Z M 661.359375 270 " clip-rule="nonzero"/></clipPath><clipPath id="c61bd1a79d"><path d="M 833.378906 270.382812 L 1338 270.382812 C 1342.300781 270.382812 1346.269531 272.691406 1348.398438 276.425781 C 1350.527344 280.160156 1350.492188 284.753906 1348.300781 288.453125 L 1210.269531 521.539062 C 1203.636719 532.742188 1191.585938 539.609375 1178.570312 539.609375 L 673.949219 539.609375 C 669.648438 539.609375 665.675781 537.304688 663.546875 533.566406 C 661.417969 529.832031 661.457031 525.242188 663.648438 521.539062 L 801.679688 288.453125 C 808.3125 277.253906 820.363281 270.382812 833.378906 270.382812 Z M 833.378906 270.382812 " clip-rule="nonzero"/></clipPath></defs><g clip-path="url(#46017f8d7b)"><g clip-path="url(#c61bd1a79d)"><path fill="#000000" d="M 652.949219 270.382812 L 1358.613281 270.382812 L 1358.613281 539.609375 L 652.949219 539.609375 Z M 652.949219 270.382812 " fill-opacity="1" fill-rule="nonzero"/></g></g><g fill="#000000" fill-opacity="1"><g transform="translate(81.000002, 494.296412)"><g><path d="M 97.046875 -124.03125 C 110.492188 -124.03125 121.296875 -119.757812 129.453125 -111.21875 C 137.617188 -102.675781 141.703125 -91.300781 141.703125 -77.09375 L 141.703125 0 L 102.484375 0 L 102.484375 -66.203125 C 102.484375 -73.304688 100.554688 -78.9375 96.703125 -83.09375 C 92.847656 -87.25 87.59375 -89.328125 80.9375 -89.328125 C 73.382812 -89.328125 67.335938 -86.609375 62.796875 -81.171875 C 58.265625 -75.734375 56 -68.78125 56 -60.3125 L 56 0 L 16.78125 0 L 16.78125 -168.234375 L 56 -168.234375 L 56 -102.03125 C 64.613281 -116.382812 78.296875 -123.71875 97.046875 -124.03125 Z M 97.046875 -124.03125 "/></g></g></g><g fill="#000000" fill-opacity="1"><g transform="translate(221.794627, 494.296412)"><g><path d="M 133.09375 -122.203125 L 80.265625 12.703125 C 71.191406 34.765625 55.472656 45.796875 33.109375 45.796875 C 20.109375 45.796875 8.238281 41.640625 -2.5 33.328125 L 13.828125 6.578125 C 19.273438 10.960938 24.640625 13.15625 29.921875 13.15625 C 36.878906 13.15625 41.945312 9.90625 45.125 3.40625 L 48.0625 -2.71875 L -2.71875 -122.203125 L 37.640625 -122.203125 L 67.5625 -41.03125 L 94.09375 -122.203125 Z M 133.09375 -122.203125 "/></g></g></g><g fill="#000000" fill-opacity="1"><g transform="translate(340.370302, 494.296412)"><g><path d="M 92.5 -123.5625 C 109.738281 -123.5625 123.609375 -117.78125 134.109375 -106.21875 C 144.617188 -94.65625 149.875 -79.425781 149.875 -60.53125 C 149.875 -41.945312 144.734375 -26.984375 134.453125 -15.640625 C 124.171875 -4.304688 110.492188 1.359375 93.421875 1.359375 C 77.390625 1.359375 64.914062 -4.535156 56 -16.328125 L 56 43.984375 L 16.78125 43.984375 L 16.78125 -122.203125 L 56 -122.203125 L 56 -106.109375 C 65.070312 -117.742188 77.238281 -123.5625 92.5 -123.5625 Z M 82.984375 -29.703125 C 91.148438 -29.703125 97.765625 -32.6875 102.828125 -38.65625 C 107.890625 -44.625 110.421875 -52.296875 110.421875 -61.671875 C 110.421875 -71.046875 107.890625 -78.679688 102.828125 -84.578125 C 97.765625 -90.472656 91.148438 -93.421875 82.984375 -93.421875 C 75.117188 -93.421875 68.65625 -90.472656 63.59375 -84.578125 C 58.53125 -78.679688 56 -71.046875 56 -61.671875 C 56 -52.148438 58.492188 -44.441406 63.484375 -38.546875 C 68.472656 -32.648438 74.972656 -29.703125 82.984375 -29.703125 Z M 82.984375 -29.703125 "/></g></g></g><g fill="#000000" fill-opacity="1"><g transform="translate(482.752027, 494.296412)"><g><path d="M 69.15625 -123.5625 C 90.3125 -123.5625 106.21875 -117.0625 116.875 -104.0625 C 127.53125 -91.070312 132.179688 -73.238281 130.828125 -50.5625 L 44.890625 -50.5625 C 46.859375 -43.300781 50.335938 -37.707031 55.328125 -33.78125 C 60.316406 -29.851562 66.4375 -27.890625 73.6875 -27.890625 C 84.875 -27.890625 94.625 -32.046875 102.9375 -40.359375 L 123.5625 -20.171875 C 110.414062 -5.816406 92.65625 1.359375 70.28125 1.359375 C 50.476562 1.359375 34.71875 -4.304688 23 -15.640625 C 11.289062 -26.984375 5.4375 -42.023438 5.4375 -60.765625 C 5.4375 -79.660156 11.289062 -94.847656 23 -106.328125 C 34.71875 -117.816406 50.101562 -123.5625 69.15625 -123.5625 Z M 44.21875 -71.640625 L 93.1875 -71.640625 C 93.1875 -79.054688 91.03125 -85.03125 86.71875 -89.5625 C 82.414062 -94.09375 76.710938 -96.359375 69.609375 -96.359375 C 62.953125 -96.359375 57.359375 -94.128906 52.828125 -89.671875 C 48.296875 -85.210938 45.425781 -79.203125 44.21875 -71.640625 Z M 44.21875 -71.640625 "/></g></g></g><g fill="#000000" fill-opacity="1"><g transform="translate(606.31563, 494.296412)"><g><path d="M 54.875 -122.203125 L 54.875 -101.578125 C 63.488281 -116.234375 76.710938 -123.71875 94.546875 -124.03125 L 94.546875 -88.65625 C 83.359375 -89.707031 74.210938 -87.851562 67.109375 -83.09375 C 60.003906 -78.332031 55.925781 -71.570312 54.875 -62.8125 L 54.875 0 L 15.640625 0 L 15.640625 -122.203125 Z M 54.875 -122.203125 "/></g></g></g><g fill="#ffffff" fill-opacity="1"><g transform="translate(738.040049, 494.296412)"><g><path d="M 68.921875 -123.5625 C 81.015625 -123.5625 91.785156 -121.179688 101.234375 -116.421875 C 110.679688 -111.660156 118.050781 -104.898438 123.34375 -96.140625 L 95.234375 -79.125 C 89.179688 -87.59375 80.941406 -91.828125 70.515625 -91.828125 C 62.953125 -91.828125 56.789062 -88.992188 52.03125 -83.328125 C 47.269531 -77.660156 44.890625 -70.210938 44.890625 -60.984375 C 44.890625 -51.617188 47.234375 -44.097656 51.921875 -38.421875 C 56.609375 -32.753906 62.804688 -29.921875 70.515625 -29.921875 C 82.003906 -29.921875 90.316406 -34.535156 95.453125 -43.765625 L 124.03125 -26.984375 C 119.039062 -17.910156 111.742188 -10.914062 102.140625 -6 C 92.546875 -1.09375 81.320312 1.359375 68.46875 1.359375 C 49.570312 1.359375 34.34375 -4.34375 22.78125 -15.75 C 11.21875 -27.164062 5.4375 -42.171875 5.4375 -60.765625 C 5.4375 -79.503906 11.289062 -94.65625 23 -106.21875 C 34.71875 -117.78125 50.023438 -123.5625 68.921875 -123.5625 Z M 68.921875 -123.5625 "/></g></g></g><g fill="#ffffff" fill-opacity="1"><g transform="translate(852.534631, 494.296412)"><g><path d="M 97.046875 -124.03125 C 110.492188 -124.03125 121.296875 -119.757812 129.453125 -111.21875 C 137.617188 -102.675781 141.703125 -91.300781 141.703125 -77.09375 L 141.703125 0 L 102.484375 0 L 102.484375 -66.203125 C 102.484375 -73.304688 100.554688 -78.9375 96.703125 -83.09375 C 92.847656 -87.25 87.59375 -89.328125 80.9375 -89.328125 C 73.382812 -89.328125 67.335938 -86.609375 62.796875 -81.171875 C 58.265625 -75.734375 56 -68.78125 56 -60.3125 L 56 0 L 16.78125 0 L 16.78125 -168.234375 L 56 -168.234375 L 56 -102.03125 C 64.613281 -116.382812 78.296875 -123.71875 97.046875 -124.03125 Z M 97.046875 -124.03125 "/></g></g></g><g fill="#ffffff" fill-opacity="1"><g transform="translate(993.329272, 494.296412)"><g><path d="M 70.515625 -124.03125 C 87.296875 -124.03125 100.332031 -120.132812 109.625 -112.34375 C 118.914062 -104.5625 123.640625 -93.71875 123.796875 -79.8125 L 123.796875 0 L 85.484375 0 L 85.484375 -14.0625 C 77.472656 -3.476562 65 1.8125 48.0625 1.8125 C 35.21875 1.8125 25.015625 -1.738281 17.453125 -8.84375 C 9.898438 -15.945312 6.125 -25.164062 6.125 -36.5 C 6.125 -48.144531 10.164062 -57.175781 18.25 -63.59375 C 26.332031 -70.019531 37.9375 -73.3125 53.0625 -73.46875 L 85.25 -73.46875 L 85.25 -75.28125 C 85.25 -81.320312 83.242188 -86.039062 79.234375 -89.4375 C 75.234375 -92.84375 69.300781 -94.546875 61.4375 -94.546875 C 50.40625 -94.546875 38.238281 -91.144531 24.9375 -84.34375 L 13.828125 -110.1875 C 33.628906 -119.414062 52.523438 -124.03125 70.515625 -124.03125 Z M 60.078125 -24.71875 C 66.273438 -24.71875 71.71875 -26.265625 76.40625 -29.359375 C 81.09375 -32.460938 84.039062 -36.507812 85.25 -41.5 L 85.25 -52.375 L 60.53125 -52.375 C 48.75 -52.375 42.859375 -47.988281 42.859375 -39.21875 C 42.859375 -34.6875 44.367188 -31.132812 47.390625 -28.5625 C 50.410156 -26 54.640625 -24.71875 60.078125 -24.71875 Z M 60.078125 -24.71875 "/></g></g></g><g fill="#ffffff" fill-opacity="1"><g transform="translate(1116.439414, 494.296412)"><g><path d="M 86.84375 -33.78125 L 94.546875 -6.578125 C 85.023438 -0.984375 74.144531 1.8125 61.90625 1.8125 C 49.8125 1.8125 40.019531 -1.546875 32.53125 -8.265625 C 25.050781 -14.992188 21.3125 -24.554688 21.3125 -36.953125 L 21.3125 -90.921875 L 4.3125 -90.921875 L 4.3125 -116.546875 L 21.3125 -116.546875 L 21.3125 -150.546875 L 60.3125 -150.546875 L 60.3125 -116.765625 L 92.28125 -116.765625 L 92.28125 -90.921875 L 60.3125 -90.921875 L 60.3125 -43.078125 C 60.3125 -38.390625 61.253906 -34.945312 63.140625 -32.75 C 65.035156 -30.5625 67.867188 -29.546875 71.640625 -29.703125 C 75.273438 -29.703125 80.34375 -31.0625 86.84375 -33.78125 Z M 86.84375 -33.78125 "/></g></g></g></svg>